<svg width="24" height="24" viewBox="0 0 24 24" fill="none" xmlns="http://www.w3.org/2000/svg">
<path d="M7.21939 0.362793C5.97806 0.42136 5.13012 0.62016 4.38929 0.910427C3.62232 1.20933 2.97225 1.61019 2.32545 2.25956C1.67795 2.90939 1.28035 3.56063 0.983555 4.32829C0.696321 5.07099 0.501488 5.91939 0.446888 7.16143C0.392288 8.40603 0.379921 8.80293 0.385988 11.9711C0.392055 15.1389 0.406055 15.5365 0.465321 16.7813C0.524588 18.0224 0.722688 18.8699 1.01295 19.6112C1.31232 20.3781 1.71272 21.028 2.36232 21.675C3.01169 22.322 3.66339 22.7194 4.43152 23.0164C5.17352 23.3034 6.02215 23.4987 7.26395 23.5531C8.50832 23.6079 8.90569 23.6201 12.073 23.614C15.2416 23.6079 15.639 23.5939 16.8834 23.5349C18.1247 23.4756 18.9717 23.2768 19.7135 22.9873C20.4804 22.6872 21.1305 22.2875 21.7773 21.6379C22.4241 20.9885 22.8217 20.3368 23.1185 19.5687C23.4057 18.8267 23.6013 17.9781 23.6552 16.737C23.7095 15.4919 23.7224 15.0941 23.7163 11.9266C23.7102 8.75859 23.696 8.36169 23.637 7.11756C23.5779 5.87553 23.3791 5.02829 23.0893 4.28676C22.7895 3.51979 22.3896 2.87043 21.7402 2.22293C21.0908 1.57613 20.4391 1.17783 19.671 0.881727C18.9285 0.594493 18.0804 0.398727 16.8386 0.34506C15.5944 0.289527 15.1973 0.277393 12.0289 0.28346C8.86112 0.289527 8.46399 0.30306 7.21962 0.362793M7.35566 21.4533C6.21815 21.4039 5.60052 21.2149 5.18892 21.0564C4.64385 20.8455 4.25489 20.5926 3.84539 20.1863C3.43682 19.7785 3.18319 19.3907 2.97039 18.8468C2.81055 18.4352 2.61805 17.8182 2.56485 16.6807C2.50699 15.4511 2.49369 15.0822 2.48809 11.9669C2.48202 8.85263 2.49345 8.48349 2.54712 7.25289C2.59589 6.11633 2.78605 5.49776 2.94402 5.08663C3.15495 4.54086 3.40695 4.15259 3.81412 3.74309C4.22199 3.33383 4.60979 3.08089 5.15415 2.86809C5.56552 2.70733 6.18222 2.51646 7.31926 2.46256C8.54962 2.40423 8.91829 2.39186 12.0326 2.38579C15.1476 2.37973 15.5167 2.39069 16.7473 2.44483C17.8839 2.49429 18.5025 2.68259 18.9134 2.84173C19.4589 3.05266 19.8479 3.30396 20.2569 3.71183C20.6659 4.11969 20.9196 4.50679 21.1324 5.05233C21.2929 5.46253 21.484 6.08016 21.5377 7.21673C21.5962 8.44709 21.6095 8.81599 21.6151 11.9305C21.6212 15.0458 21.6098 15.4147 21.5559 16.6446C21.5064 17.7821 21.3176 18.3999 21.159 18.812C20.948 19.3566 20.6958 19.7456 20.2884 20.1551C19.881 20.5629 19.4932 20.8173 18.9484 21.0301C18.5379 21.1904 17.9203 21.3817 16.784 21.4356C15.5536 21.4935 15.1849 21.5068 12.0695 21.5124C8.95515 21.5184 8.58649 21.5068 7.35589 21.4533M16.8663 5.71243C16.8677 6.48499 17.4961 7.11056 18.2687 7.10916C19.0417 7.10776 19.6673 6.47986 19.6661 5.70706C19.6645 4.93449 19.0363 4.30846 18.2633 4.30986C17.4903 4.31126 16.8647 4.93963 16.8661 5.71219M6.06089 11.9602C6.06719 15.2688 8.75449 17.9452 12.0625 17.9386C15.3707 17.9321 18.0484 15.2457 18.0421 11.9371C18.0356 8.62956 15.348 5.95183 12.0394 5.95813C8.73139 5.96466 6.05435 8.65219 6.06089 11.9602ZM8.16229 11.956C8.15855 9.80859 9.89666 8.06396 12.0436 8.06023C14.1909 8.05603 15.9358 9.79343 15.94 11.9413C15.9442 14.0891 14.2061 15.8333 12.0583 15.8375C9.91112 15.8417 8.16625 14.104 8.16229 11.9562" fill="black"/>
</svg>
