<svg width="26" height="25" viewBox="0 0 26 25" fill="none" xmlns="http://www.w3.org/2000/svg">
<path d="M25.5128 15.3428V24.7172H20.127V15.9699C20.127 13.7724 19.3478 12.2735 17.3987 12.2735C15.9104 12.2735 15.0253 13.2839 14.6353 14.2617C14.4929 14.6111 14.4564 15.0974 14.4564 15.5867V24.7172H9.0684C9.0684 24.7172 9.1407 9.90285 9.0684 8.36784H14.4557V10.6855C14.4447 10.7024 14.4308 10.7216 14.4206 10.7385H14.4557V10.6855C15.1714 9.57344 16.4493 7.9839 19.3106 7.9839C22.8554 7.9839 25.5128 10.3207 25.5128 15.3428ZM3.43356 0.487183C1.59034 0.487183 0.384644 1.70679 0.384644 3.31107C0.384644 4.91535 1.55528 6.13791 3.362 6.13791H3.39851C5.27752 6.13791 6.44597 4.88146 6.44597 3.31107C6.40945 1.70679 5.27679 0.487183 3.43356 0.487183ZM0.704506 24.718H6.09032V8.36858H0.704506V24.718Z" fill="black"/>
</svg>
