<svg width="39" height="39" viewBox="0 0 39 39" fill="none" xmlns="http://www.w3.org/2000/svg">
<path d="M34 21.5534V31.9992H27.9987V22.2522C27.9987 19.8036 27.1304 18.1334 24.9585 18.1334C23.3001 18.1334 22.3139 19.2591 21.8793 20.3488C21.7207 20.738 21.68 21.28 21.68 21.8252V31.9992H15.6762C15.6762 31.9992 15.7568 15.4917 15.6762 13.7813H21.6792V16.3638C21.6669 16.3827 21.6515 16.404 21.6401 16.4229H21.6792V16.3638C22.4766 15.1247 23.9007 13.3535 27.0889 13.3535C31.0388 13.3535 34 15.9573 34 21.5534ZM9.39737 5C7.34349 5 6 6.35899 6 8.14662C6 9.93425 7.30443 11.2965 9.31762 11.2965H9.35831C11.4521 11.2965 12.754 9.89648 12.754 8.14662C12.7134 6.35899 11.4512 5 9.39737 5ZM6.35642 32H12.3578V13.7821H6.35642V32Z" fill="black"/>
</svg>
