<svg width="28" height="22" viewBox="0 0 28 22" fill="none" xmlns="http://www.w3.org/2000/svg">
<path d="M27.4103 2.72775C26.4194 3.15994 25.3559 3.45349 24.2391 3.58456C25.3795 2.91189 26.2527 1.84493 26.6668 0.577041C25.5967 1.19988 24.4156 1.65212 23.1574 1.89747C22.1495 0.839177 20.7159 0.179504 19.1262 0.179504C16.076 0.179504 13.6031 2.61509 13.6031 5.61774C13.6031 6.04344 13.6521 6.45939 13.7461 6.85693C9.15672 6.62999 5.087 4.46412 2.3634 1.17335C1.8872 1.97546 1.6161 2.90972 1.6161 3.90736C1.6161 5.79484 2.59215 7.45973 4.07245 8.43407C3.16734 8.40429 2.31611 8.15894 1.57101 7.75165V7.81935C1.57101 10.4537 3.47528 12.6526 6.00091 13.1531C5.53846 13.276 5.05016 13.3437 4.54536 13.3437C4.18903 13.3437 3.8437 13.309 3.50552 13.2424C4.20883 15.405 6.24781 16.9773 8.66347 17.0206C6.77405 18.4786 4.39194 19.3452 1.80471 19.3452C1.35876 19.3452 0.919945 19.3187 0.487183 19.2705C2.93144 20.8162 5.83375 21.718 8.95271 21.718C19.1124 21.718 24.6658 13.4298 24.6658 6.24167L24.6471 5.53758C25.732 4.775 26.6707 3.81745 27.4097 2.7272L27.4103 2.72775Z" fill="black"/>
</svg>
