<svg width="39" height="39" viewBox="0 0 39 39" fill="none" xmlns="http://www.w3.org/2000/svg">
<path d="M35 10.8395C33.8959 11.3211 32.7108 11.6482 31.4664 11.7942C32.7372 11.0447 33.7102 9.85576 34.1716 8.44297C32.9792 9.13699 31.6631 9.64092 30.2611 9.9143C29.138 8.73506 27.5406 8 25.7692 8C22.3704 8 19.6149 10.7139 19.6149 14.0597C19.6149 14.5341 19.6694 14.9976 19.7742 15.4406C14.6603 15.1877 10.1255 12.7743 7.09064 9.10742C6.56002 10.0012 6.25794 11.0422 6.25794 12.1539C6.25794 14.2571 7.34554 16.1123 8.99502 17.1979C7.98646 17.1648 7.03795 16.8914 6.2077 16.4375V16.513C6.2077 19.4484 8.32959 21.8986 11.1439 22.4562C10.6286 22.5932 10.0845 22.6687 9.52197 22.6687C9.12492 22.6687 8.74012 22.6301 8.36329 22.5558C9.14697 24.9656 11.419 26.7176 14.1107 26.7658C12.0054 28.3905 9.35101 29.3561 6.46811 29.3561C5.97118 29.3561 5.48222 29.3265 5 29.2728C7.7236 30.9952 10.9576 32 14.433 32C25.7539 32 31.9419 22.7646 31.9419 14.755L31.921 13.9704C33.1299 13.1207 34.1759 12.0537 34.9994 10.8389L35 10.8395Z" fill="black"/>
</svg>
