<svg width="39" height="39" viewBox="0 0 39 39" fill="none" xmlns="http://www.w3.org/2000/svg">
<path d="M13.6159 7.08998C12.2327 7.15524 11.2878 7.37676 10.4623 7.7002C9.6077 8.03326 8.88334 8.47994 8.16262 9.20352C7.44112 9.92762 6.99808 10.6533 6.66736 11.5087C6.3473 12.3363 6.13021 13.2816 6.06937 14.6656C6.00853 16.0524 5.99475 16.4947 6.00151 20.025C6.00827 23.5547 6.02387 23.9978 6.08991 25.3849C6.15595 26.7678 6.37669 27.7121 6.70012 28.5382C7.0337 29.3928 7.47986 30.1169 8.2037 30.8379C8.92728 31.5588 9.65346 32.0016 10.5094 32.3326C11.3362 32.6524 12.2818 32.87 13.6655 32.9306C15.0521 32.9917 15.4949 33.0052 19.0241 32.9985C22.5549 32.9917 22.9977 32.9761 24.3843 32.9103C25.7675 32.8443 26.7113 32.6228 27.5378 32.3001C28.3924 31.9657 29.1168 31.5204 29.8375 30.7965C30.5582 30.0729 31.0013 29.3468 31.332 28.4908C31.6521 27.664 31.8699 26.7184 31.93 25.3355C31.9906 23.9481 32.0049 23.5048 31.9981 19.9753C31.9914 16.4453 31.9755 16.003 31.9097 14.6167C31.8439 13.2327 31.6224 12.2887 31.2995 11.4624C30.9654 10.6078 30.5198 9.8842 29.7962 9.1627C29.0726 8.44198 28.3464 7.99816 27.4905 7.66822C26.6632 7.34816 25.7181 7.13002 24.3344 7.07022C22.948 7.00834 22.5055 6.99482 18.975 7.00158C15.4452 7.00834 15.0027 7.02342 13.6161 7.08998M13.7677 30.5909C12.5002 30.5357 11.812 30.3251 11.3533 30.1486C10.746 29.9136 10.3126 29.6317 9.85626 29.1791C9.40101 28.7246 9.11838 28.2925 8.88126 27.6864C8.70316 27.2278 8.48866 26.5403 8.42938 25.2728C8.3649 23.9026 8.35008 23.4916 8.34384 20.0203C8.33708 16.5501 8.34982 16.1388 8.40962 14.7675C8.46396 13.5011 8.67586 12.8118 8.85188 12.3537C9.08692 11.7455 9.36772 11.3129 9.82142 10.8566C10.2759 10.4006 10.708 10.1187 11.3146 9.8816C11.773 9.70246 12.4602 9.48978 13.7271 9.42972C15.0981 9.36472 15.5089 9.35094 18.9791 9.34418C22.4501 9.33742 22.8615 9.34964 24.2327 9.40996C25.4992 9.46508 26.1884 9.6749 26.6463 9.85222C27.2542 10.0873 27.6876 10.3673 28.1434 10.8218C28.5991 11.2762 28.8818 11.7076 29.1189 12.3155C29.2978 12.7725 29.5107 13.4608 29.5705 14.7272C29.6358 16.0982 29.6506 16.5093 29.6568 19.9797C29.6636 23.451 29.6508 23.8621 29.5908 25.2325C29.5357 26.5 29.3253 27.1885 29.1485 27.6477C28.9135 28.2545 28.6324 28.6879 28.1785 29.1442C27.7245 29.5987 27.2924 29.8821 26.6853 30.1192C26.2279 30.2978 25.5397 30.511 24.2735 30.5711C22.9025 30.6356 22.4917 30.6504 19.0202 30.6566C15.55 30.6634 15.1392 30.6504 13.768 30.5909M24.3653 13.051C24.3669 13.9119 25.067 14.6089 25.9279 14.6074C26.7893 14.6058 27.4863 13.9061 27.485 13.045C27.4832 12.1842 26.7833 11.4866 25.9219 11.4881C25.0605 11.4897 24.3635 12.1899 24.365 13.0507M12.325 20.0128C12.332 23.6996 15.3264 26.6818 19.0124 26.6745C22.6987 26.6672 25.6825 23.6738 25.6754 19.987C25.6682 16.3015 22.6735 13.3178 18.9867 13.3248C15.3007 13.3321 12.3177 16.3267 12.325 20.0128ZM14.6665 20.0081C14.6624 17.6153 16.5991 15.6713 18.9914 15.6671C21.3841 15.6624 23.3284 17.5984 23.3331 19.9917C23.3378 22.385 21.401 24.3285 19.0077 24.3332C16.6152 24.3379 14.6709 22.4016 14.6665 20.0083" fill="black"/>
</svg>
