<svg width="144" height="29" viewBox="0 0 144 29" fill="none" xmlns="http://www.w3.org/2000/svg">
<path d="M16.0174 3.66547V11.6204C12.7968 8.54972 7.49767 8.12724 3.50535 12.0326C-0.17829 15.5567 -0.178288 21.9557 3.49506 25.4901C7.47709 29.4263 12.7865 28.9729 16.0174 25.8713L16.645 28.0043H19.7216V3.66547H16.0174ZM4.4314 18.7613C4.66806 11.0846 15.7807 11.064 16.0071 18.7613C15.7704 26.4071 4.67835 26.4174 4.4314 18.7613Z" fill="black"/>
<path d="M62.4127 24.2638C62.1246 24.4493 61.785 24.5627 61.4146 24.5627C60.3959 24.5627 59.5625 23.728 59.5625 22.7079V14.4541H63.2255V11.3628H59.5625V6.77738H55.8583V11.3628H48.8408V8.21998C48.8408 6.28277 50.4151 4.7062 52.3495 4.7062C52.8846 4.7062 53.3888 4.82986 53.8415 5.04625L55.282 1.62521C54.3869 1.22334 53.3888 0.996643 52.3495 0.996643C48.3675 0.996643 45.1366 4.23221 45.1366 8.21998V11.3628H42.451V14.4541H45.1366V28.0043H48.8408V14.4541H55.8583V22.7079C55.8583 25.7786 58.3483 28.2722 61.4146 28.2722C62.5258 28.2722 63.5651 27.9425 64.4294 27.3757L62.4127 24.2638Z" fill="black"/>
<path d="M75.2437 24.6142C72.0231 24.6142 69.3993 21.9866 69.3993 18.7613C69.3993 15.5361 72.0231 12.8982 75.2437 12.8982C76.6945 12.8982 78.0219 13.434 79.0405 14.3099L81.438 11.4865C79.7711 10.0542 77.6103 9.1886 75.2437 9.1886C69.9755 9.1886 65.6951 13.4855 65.6951 18.7613C65.6951 24.0372 69.9755 28.3238 75.2437 28.3238C77.6103 28.3238 79.7711 27.4582 81.438 26.0259L79.0302 23.2025C78.0219 24.0887 76.6945 24.6142 75.2437 24.6142Z" fill="black"/>
<path d="M117.667 3.66547V11.6204C114.447 8.54972 109.148 8.12724 105.155 12.0326C101.472 15.5567 101.472 21.9557 105.155 25.4901C109.127 29.4263 114.436 28.9729 117.667 25.8713L118.295 28.0043H121.371V3.66547H117.667ZM106.081 18.7613C106.318 11.0846 117.441 11.064 117.657 18.7613C117.42 26.4071 106.328 26.4174 106.081 18.7613Z" fill="black"/>
<path d="M91.5525 28.3238C86.2843 28.3238 82.0038 24.0372 82.0038 18.7613C82.0038 13.4855 86.2843 9.19891 91.5525 9.19891C96.8207 9.19891 101.101 13.4855 101.101 18.7613C101.101 24.0372 96.8207 28.3238 91.5525 28.3238ZM91.5525 12.9085C88.3319 12.9085 85.7081 15.5361 85.7081 18.7613C85.7081 21.9866 88.3319 24.6142 91.5525 24.6142C94.7731 24.6142 97.3969 21.9866 97.3969 18.7613C97.3969 15.5361 94.7731 12.9085 91.5525 12.9085Z" fill="black"/>
<path d="M31.4619 9.19891C27.9429 9.19891 25.0207 11.0743 23.467 12.826L26.2348 15.2991C27.2844 14.1038 29.3114 12.9085 31.4619 12.9085C34.2092 12.9085 35.7012 14.4953 36.1745 16.3707H33.9417C31.1944 16.3707 27.9326 16.5253 25.6998 17.9885C24.1564 18.9262 22.9937 20.781 22.9937 22.9037C22.9937 23.0789 22.9936 23.2643 23.0142 23.4395C23.0142 23.4498 23.0245 23.4704 23.0245 23.4807C23.0348 23.6044 23.0348 23.728 23.0554 23.8517C23.0554 23.8826 23.0554 23.9032 23.0554 23.9238C23.076 24.0578 23.1068 24.1917 23.1377 24.3154V24.3463C24.2593 28.9935 32.1616 29.5191 35.8658 26.2114C36.0407 26.0774 36.1951 25.9229 36.3494 25.7683L37.0182 28.0043H40.0536V17.7206C40.0536 12.7848 36.442 9.19891 31.4516 9.19891H31.4619ZM36.3597 21.1623C36.3597 21.6362 36.3288 21.832 36.2259 22.069C35.5777 23.1613 34.6208 24.0372 33.4889 24.5833C33.3346 24.676 33.1494 24.7585 32.8819 24.8512C32.851 24.8615 32.8098 24.8718 32.7687 24.8821C32.5011 24.9749 32.2336 25.047 31.9558 25.1088C31.8941 25.1191 31.8323 25.1397 31.7706 25.15C31.6162 25.1809 31.4516 25.1912 31.2973 25.2119C29.6407 25.4282 28.3648 25.0367 27.6033 24.4906C27.5416 24.4493 27.4799 24.4081 27.4284 24.3669C27.3976 24.3463 27.377 24.3257 27.3461 24.3051C27.2329 24.202 27.13 24.099 27.0477 23.9856C26.4818 23.0995 26.5538 21.9351 27.377 21.1107C28.0252 20.4513 29.1056 19.9154 30.2477 19.6887C31.2561 19.4929 32.8613 19.4826 33.9417 19.4826H36.3597V21.1623Z" fill="black"/>
<path d="M143 18.7613C143 13.4855 138.72 9.19891 133.451 9.19891C128.183 9.19891 123.903 13.4855 123.903 18.7613C123.903 24.0372 128.451 28.3238 134.038 28.3238C136.528 28.3238 138.925 27.4685 140.788 25.9022L138.411 23.0582C137.217 24.0578 135.674 24.6142 134.048 24.6142C131.136 24.6142 128.677 22.8419 127.885 20.4306H142.856C142.959 19.8845 143.01 19.3281 143.01 18.7613H143ZM133.451 12.8982C136.188 12.8982 138.483 14.7942 139.121 17.329H127.792C128.43 14.7839 130.725 12.8982 133.462 12.8982H133.451Z" fill="black"/>
</svg>
